<svg width="20" height="20" viewBox="0 0 20 20" fill="none" xmlns="http://www.w3.org/2000/svg">
<path d="M19.6018 10.24C19.6018 9.5646 19.5364 8.86745 19.4275 8.21387H9.99414V12.07H15.3971C15.1792 13.3118 14.4603 14.4011 13.3928 15.0983L16.6171 17.6037C18.5125 15.839 19.6018 13.2682 19.6018 10.24Z" fill="#4280EF"/>
<path d="M9.99406 19.9998C12.6955 19.9998 14.9613 19.1066 16.617 17.5816L13.3927 15.0979C12.4995 15.708 11.3448 16.0565 9.99406 16.0565C7.37973 16.0565 5.17933 14.2919 4.37325 11.939L1.06177 14.4879C2.76108 17.8648 6.20328 19.9998 9.99406 19.9998Z" fill="#34A353"/>
<path d="M4.37356 11.9173C3.95962 10.6755 3.95962 9.32477 4.37356 8.08296L1.06207 5.51221C-0.354024 8.3444 -0.354024 11.6777 1.06207 14.4881L4.37356 11.9173Z" fill="#F6B704"/>
<path d="M9.99405 3.96544C11.4101 3.94366 12.8045 4.48831 13.8284 5.46868L16.6824 2.59292C14.8741 0.893608 12.4777 -0.0214058 9.99405 0.000380229C6.20328 0.000380229 2.76108 2.13541 1.06177 5.51225L4.37325 8.083C5.17933 5.70832 7.37972 3.96544 9.99405 3.96544Z" fill="#E54335"/>
</svg>
