<?xml version="1.0" standalone="no"?>
<!DOCTYPE svg PUBLIC "-//W3C//DTD SVG 20010904//EN"
 "http://www.w3.org/TR/2001/REC-SVG-20010904/DTD/svg10.dtd">
<svg version="1.0" xmlns="http://www.w3.org/2000/svg"
 width="158.000000pt" height="102.000000pt" viewBox="0 0 158.000000 102.000000"
 preserveAspectRatio="xMidYMid meet">

<g transform="translate(0.000000,102.000000) scale(0.100000,-0.100000)"
fill="#000000" stroke="none">
<path d="M313 942 c-138 -57 -223 -183 -223 -329 0 -70 28 -147 84 -231 71
-105 246 -322 261 -322 14 0 216 250 271 336 56 87 69 130 69 224 0 71 -4 94
-27 142 -32 70 -96 135 -163 168 -67 32 -208 39 -272 12z m261 -52 c106 -54
172 -171 163 -292 -7 -105 -54 -182 -272 -452 l-30 -37 -86 108 c-141 179
-147 188 -180 251 -74 145 -33 318 96 403 61 40 93 49 180 46 62 -2 91 -8 129
-27z"/>
<path d="M354 837 c-113 -45 -176 -168 -144 -282 18 -65 79 -129 146 -154 68
-26 90 -26 158 0 183 68 208 311 42 413 -55 34 -148 45 -202 23z m161 -46 c69
-31 115 -104 115 -182 0 -14 -12 -49 -26 -77 -84 -168 -335 -125 -360 62 -16
111 77 216 191 216 22 0 58 -9 80 -19z"/>
<path d="M363 740 c-41 -25 -65 -61 -67 -102 -1 -23 4 -33 17 -36 13 -3 17 3
17 23 0 36 59 95 94 95 19 0 26 5 26 20 0 27 -44 27 -87 0z"/>
<path d="M705 910 c17 -19 31 -20 277 -20 l258 0 0 -25 0 -25 -240 0 c-238 0
-240 0 -228 -20 12 -19 24 -20 180 -20 l168 0 0 -60 0 -60 -145 0 c-138 0
-145 -1 -145 -20 0 -19 7 -20 193 -20 l193 0 62 -90 63 -90 -270 0 c-260 0
-271 -1 -281 -20 -11 -20 -8 -20 225 -20 l235 0 0 -165 0 -165 -145 0 -145 0
0 96 c0 52 -5 104 -11 116 -16 29 -70 48 -140 48 -60 0 -64 -2 -101 -40 l-38
-41 0 -89 0 -90 -64 0 c-45 0 -69 -5 -80 -16 -9 -8 -16 -17 -16 -20 0 -2 225
-4 501 -4 471 0 500 1 497 18 -3 15 -18 17 -111 20 l-107 3 0 164 0 165 33 0
c36 0 57 15 57 40 0 8 -32 60 -70 115 -64 92 -72 100 -107 105 l-38 5 0 55 0
55 48 6 c27 3 53 12 58 20 13 19 4 90 -13 100 -7 5 -139 9 -292 9 -278 0 -279
0 -261 -20z m193 -616 c20 -14 22 -23 22 -110 l0 -94 -95 0 c-52 0 -98 -1
-102 -2 -10 -4 -16 127 -8 170 4 21 14 36 28 42 37 15 130 12 155 -6z"/>
<path d="M1042 334 c-19 -13 -22 -24 -22 -88 0 -90 8 -98 87 -94 l58 3 3 85
c2 71 0 87 -14 97 -24 18 -85 16 -112 -3z m96 -86 l3 -58 -41 0 -40 0 0 53 c0
63 4 69 45 65 29 -3 30 -5 33 -60z"/>
<path d="M93 83 c-7 -2 -13 -11 -13 -19 0 -11 26 -14 140 -14 77 0 140 2 140
4 0 3 -7 12 -16 20 -12 13 -38 16 -127 15 -62 0 -118 -3 -124 -6z"/>
</g>
</svg>
