<?xml version="1.0" encoding="UTF-8"?>
<svg width="22px" height="22px" viewBox="0 0 22 22" version="1.1" xmlns="http://www.w3.org/2000/svg" xmlns:xlink="http://www.w3.org/1999/xlink">
    <title>Path Copy 2</title>
    <g id="Design" stroke="none" stroke-width="1" fill="none" fill-rule="evenodd">
        <g id="Hamburger-Menu" transform="translate(-16.000000, -50.000000)" fill="#FFFFFF" fill-rule="nonzero">
            <path d="M38.8080259,58.5828248 L28.7865782,58.5828248 L28.7865782,49.0117793 C28.7865782,48.4487766 28.5613771,47.9233074 28.186042,47.5104388 C28.186042,47.5104388 28.186042,47.5104388 28.186042,47.5104388 C27.7731734,47.0975701 27.2477042,46.9099026 26.6847015,46.9099026 C26.1216988,46.9099026 25.5962297,47.1351036 25.183361,47.5104388 C24.7704924,47.9233074 24.5828248,48.4487766 24.5828248,49.0117793 L24.5828248,58.5828248 L15.0117793,58.5828248 C14.4487766,58.5828248 13.9233074,58.8080259 13.5104388,59.183361 C13.0975701,59.5962297 12.9099026,60.1216988 12.9099026,60.6847015 C12.9099026,61.7731734 13.9233074,62.7865782 15.0117793,62.7865782 L24.5828248,62.7865782 L24.5828248,72.8080259 C24.5828248,73.3710286 24.8080259,73.8964978 25.183361,74.3093664 C25.5962297,74.722235 26.1216988,74.9099026 26.6847015,74.9099026 C27.2477042,74.9099026 27.7731734,74.6847015 28.186042,74.3093664 C28.5989106,73.8964978 28.7865782,73.3710286 28.7865782,72.8080259 L28.7865782,62.7865782 L38.8080259,62.7865782 C39.3710286,62.7865782 39.8964978,62.5613771 40.3093664,62.186042 C40.722235,61.7731734 40.9099026,61.2477042 40.9099026,60.6847015 C40.9099026,60.1216988 40.6847015,59.5962297 40.3093664,59.183361 C39.8964978,58.8080259 39.3710286,58.5828248 38.8080259,58.5828248 Z" id="Path-Copy-2" transform="translate(26.909903, 60.909903) rotate(45.000000) translate(-26.909903, -60.909903) "></path>
        </g>
    </g>
</svg>